<?xml version="1.0" standalone="no"?><!DOCTYPE svg PUBLIC "-//W3C//DTD SVG 1.1//EN" "http://www.w3.org/Graphics/SVG/1.1/DTD/svg11.dtd"><svg t="1552037357651" class="icon" style="" viewBox="0 0 1158 1024" version="1.1" xmlns="http://www.w3.org/2000/svg" p-id="2046" xmlns:xlink="http://www.w3.org/1999/xlink" width="226.171875" height="200"><defs><style type="text/css"></style></defs><path d="M238.725565 89.043478 44.521739 89.043478C19.901217 89.043478 0 69.097739 0 44.521739s19.901217-44.521739 44.521739-44.521739l194.203826 0c24.620522 0 44.521739 19.945739 44.521739 44.521739S263.346087 89.043478 238.725565 89.043478z" p-id="2047"></path><path d="M1113.043478 89.043478 403.18887 89.043478c-24.620522 0-44.521739-19.945739-44.521739-44.521739s19.901217-44.521739 44.521739-44.521739L1113.043478 0c24.620522 0 44.521739 19.945739 44.521739 44.521739S1137.664 89.043478 1113.043478 89.043478z" p-id="2048"></path><path d="M238.725565 397.935304 44.521739 397.935304c-24.620522 0-44.521739-19.945739-44.521739-44.521739s19.901217-44.521739 44.521739-44.521739l194.203826 0c24.620522 0 44.521739 19.945739 44.521739 44.521739S263.346087 397.935304 238.725565 397.935304z" p-id="2049"></path><path d="M1113.043478 397.935304 403.18887 397.935304c-24.620522 0-44.521739-19.945739-44.521739-44.521739s19.901217-44.521739 44.521739-44.521739L1113.043478 308.891826c24.620522 0 44.521739 19.945739 44.521739 44.521739S1137.664 397.935304 1113.043478 397.935304z" p-id="2050"></path><path d="M238.725565 710.477913 44.521739 710.477913c-24.620522 0-44.521739-19.945739-44.521739-44.521739s19.901217-44.521739 44.521739-44.521739l194.203826 0c24.620522 0 44.521739 19.945739 44.521739 44.521739S263.346087 710.477913 238.725565 710.477913z" p-id="2051"></path><path d="M1113.043478 710.477913 403.18887 710.477913c-24.620522 0-44.521739-19.945739-44.521739-44.521739s19.901217-44.521739 44.521739-44.521739L1113.043478 621.434435c24.620522 0 44.521739 19.945739 44.521739 44.521739S1137.664 710.477913 1113.043478 710.477913z" p-id="2052"></path><path d="M238.725565 1024 44.521739 1024c-24.620522 0-44.521739-19.945739-44.521739-44.521739s19.901217-44.521739 44.521739-44.521739l194.203826 0c24.620522 0 44.521739 19.945739 44.521739 44.521739S263.346087 1024 238.725565 1024z" p-id="2053"></path><path d="M1113.043478 1024 403.18887 1024c-24.620522 0-44.521739-19.945739-44.521739-44.521739s19.901217-44.521739 44.521739-44.521739L1113.043478 934.956522c24.620522 0 44.521739 19.945739 44.521739 44.521739S1137.664 1024 1113.043478 1024z" p-id="2054"></path></svg>